<?xml version="1.0" encoding="UTF-8" ?>
<svg version="1.1" width="64" height="64" xmlns="http://www.w3.org/2000/svg" shape-rendering="crispEdges">
<rect x="26" y="9" width="10" height="1" fill="#AC3232" />
<rect x="24" y="10" width="2" height="1" fill="#AC3232" />
<rect x="26" y="10" width="10" height="1" fill="#A42F2F" />
<rect x="36" y="10" width="2" height="1" fill="#AC3232" />
<rect x="22" y="11" width="2" height="1" fill="#AC3232" />
<rect x="24" y="11" width="2" height="1" fill="#A42F2F" />
<rect x="26" y="11" width="1" height="2" fill="#FFFFFF" />
<rect x="27" y="11" width="7" height="6" fill="#A42F2F" />
<rect x="34" y="11" width="2" height="2" fill="#FFFFFF" />
<rect x="36" y="11" width="2" height="1" fill="#A42F2F" />
<rect x="38" y="11" width="2" height="1" fill="#AC3232" />
<rect x="20" y="12" width="2" height="1" fill="#AC3232" />
<rect x="22" y="12" width="1" height="2" fill="#A02F2F" />
<rect x="23" y="12" width="2" height="1" fill="#A42F2F" />
<rect x="25" y="12" width="1" height="2" fill="#FFFFFF" />
<rect x="36" y="12" width="1" height="2" fill="#FFFFFF" />
<rect x="37" y="12" width="1" height="1" fill="#A42F2F" />
<rect x="38" y="12" width="1" height="3" fill="#A02F2F" />
<rect x="39" y="12" width="1" height="1" fill="#972B2B" />
<rect x="40" y="12" width="2" height="1" fill="#AC3232" />
<rect x="19" y="13" width="1" height="1" fill="#AC3232" />
<rect x="20" y="13" width="1" height="1" fill="#972B2B" />
<rect x="21" y="13" width="1" height="1" fill="#9C2D2D" />
<rect x="23" y="13" width="1" height="7" fill="#A42F2F" />
<rect x="24" y="13" width="1" height="1" fill="#FFFFFF" />
<rect x="26" y="13" width="1" height="7" fill="#A42F2F" />
<rect x="34" y="13" width="1" height="7" fill="#A42F2F" />
<rect x="35" y="13" width="1" height="1" fill="#FFFFFF" />
<rect x="37" y="13" width="1" height="1" fill="#FFFFFF" />
<rect x="39" y="13" width="1" height="1" fill="#9C2D2D" />
<rect x="40" y="13" width="2" height="1" fill="#972B2B" />
<rect x="42" y="13" width="1" height="1" fill="#AC3232" />
<rect x="18" y="14" width="1" height="1" fill="#AC3232" />
<rect x="19" y="14" width="1" height="1" fill="#972B2B" />
<rect x="20" y="14" width="1" height="1" fill="#9C2D2D" />
<rect x="21" y="14" width="1" height="1" fill="#A02F2F" />
<rect x="22" y="14" width="1" height="8" fill="#A42F2F" />
<rect x="24" y="14" width="2" height="6" fill="#A42F2F" />
<rect x="35" y="14" width="3" height="6" fill="#A42F2F" />
<rect x="39" y="14" width="1" height="1" fill="#A02F2F" />
<rect x="40" y="14" width="2" height="1" fill="#9C2D2D" />
<rect x="42" y="14" width="1" height="1" fill="#972B2B" />
<rect x="43" y="14" width="1" height="1" fill="#AC3232" />
<rect x="17" y="15" width="1" height="1" fill="#AC3232" />
<rect x="18" y="15" width="1" height="1" fill="#A42F2F" />
<rect x="19" y="15" width="1" height="1" fill="#9C2D2D" />
<rect x="20" y="15" width="1" height="1" fill="#A02F2F" />
<rect x="21" y="15" width="1" height="3" fill="#A42F2F" />
<rect x="38" y="15" width="2" height="6" fill="#A42F2F" />
<rect x="40" y="15" width="2" height="1" fill="#A02F2F" />
<rect x="42" y="15" width="1" height="1" fill="#9C2D2D" />
<rect x="43" y="15" width="1" height="2" fill="#FFFFFF" />
<rect x="44" y="15" width="1" height="1" fill="#AC3232" />
<rect x="16" y="16" width="1" height="1" fill="#AC3232" />
<rect x="17" y="16" width="1" height="1" fill="#972B2B" />
<rect x="18" y="16" width="1" height="1" fill="#9C2D2D" />
<rect x="19" y="16" width="1" height="1" fill="#A02F2F" />
<rect x="20" y="16" width="1" height="1" fill="#A42F2F" />
<rect x="40" y="16" width="1" height="6" fill="#A42F2F" />
<rect x="41" y="16" width="2" height="1" fill="#A02F2F" />
<rect x="44" y="16" width="1" height="1" fill="#FFFFFF" />
<rect x="45" y="16" width="1" height="1" fill="#AC3232" />
<rect x="15" y="17" width="1" height="1" fill="#AC3232" />
<rect x="16" y="17" width="1" height="1" fill="#972B2B" />
<rect x="17" y="17" width="1" height="1" fill="#9C2D2D" />
<rect x="18" y="17" width="1" height="1" fill="#A42F2F" />
<rect x="19" y="17" width="2" height="3" fill="#FFFFFF" />
<rect x="27" y="17" width="3" height="2" fill="#A42F2F" />
<rect x="30" y="17" width="1" height="3" fill="#FFFFFF" />
<rect x="31" y="17" width="3" height="1" fill="#A42F2F" />
<rect x="41" y="17" width="1" height="4" fill="#A42F2F" />
<rect x="42" y="17" width="1" height="1" fill="#A02F2F" />
<rect x="43" y="17" width="1" height="1" fill="#A02E2E" />
<rect x="44" y="17" width="1" height="1" fill="#9C2D2D" />
<rect x="45" y="17" width="1" height="1" fill="#972B2B" />
<rect x="46" y="17" width="1" height="1" fill="#AC3232" />
<rect x="14" y="18" width="1" height="1" fill="#AC3232" />
<rect x="15" y="18" width="1" height="1" fill="#972B2B" />
<rect x="16" y="18" width="1" height="1" fill="#9C2D2D" />
<rect x="17" y="18" width="1" height="1" fill="#A42F2F" />
<rect x="18" y="18" width="1" height="2" fill="#FFFFFF" />
<rect x="21" y="18" width="1" height="1" fill="#FFFFFF" />
<rect x="31" y="18" width="1" height="1" fill="#FFFFFF" />
<rect x="32" y="18" width="2" height="2" fill="#A42F2F" />
<rect x="42" y="18" width="1" height="2" fill="#A42F2F" />
<rect x="43" y="18" width="1" height="1" fill="#A02F2F" />
<rect x="44" y="18" width="1" height="1" fill="#A02E2E" />
<rect x="45" y="18" width="1" height="1" fill="#9C2D2D" />
<rect x="46" y="18" width="1" height="1" fill="#972B2B" />
<rect x="47" y="18" width="1" height="1" fill="#AC3232" />
<rect x="13" y="19" width="1" height="1" fill="#AC3232" />
<rect x="14" y="19" width="1" height="1" fill="#972B2B" />
<rect x="15" y="19" width="1" height="1" fill="#9C2D2D" />
<rect x="16" y="19" width="1" height="4" fill="#A42F2F" />
<rect x="17" y="19" width="1" height="1" fill="#FFFFFF" />
<rect x="21" y="19" width="1" height="3" fill="#A42F2F" />
<rect x="27" y="19" width="2" height="1" fill="#A42F2F" />
<rect x="29" y="19" width="1" height="1" fill="#FFFFFF" />
<rect x="31" y="19" width="1" height="1" fill="#A42F2F" />
<rect x="43" y="19" width="1" height="1" fill="#A42F2F" />
<rect x="44" y="19" width="1" height="1" fill="#A02F2F" />
<rect x="45" y="19" width="1" height="2" fill="#A02E2E" />
<rect x="46" y="19" width="1" height="1" fill="#9C2D2D" />
<rect x="47" y="19" width="1" height="1" fill="#972B2B" />
<rect x="48" y="19" width="1" height="1" fill="#AC3232" />
<rect x="12" y="20" width="1" height="1" fill="#AC3232" />
<rect x="13" y="20" width="1" height="1" fill="#972B2B" />
<rect x="14" y="20" width="1" height="2" fill="#9C2D2D" />
<rect x="15" y="20" width="1" height="1" fill="#A02F2F" />
<rect x="17" y="20" width="4" height="2" fill="#A42F2F" />
<rect x="23" y="20" width="15" height="1" fill="#AC3232" />
<rect x="42" y="20" width="2" height="2" fill="#FFFFFF" />
<rect x="44" y="20" width="1" height="1" fill="#A42F2F" />
<rect x="46" y="20" width="1" height="2" fill="#A02E2E" />
<rect x="47" y="20" width="1" height="1" fill="#9C2D2D" />
<rect x="48" y="20" width="1" height="1" fill="#972B2B" />
<rect x="49" y="20" width="1" height="1" fill="#AC3232" />
<rect x="11" y="21" width="1" height="1" fill="#AC3232" />
<rect x="12" y="21" width="1" height="3" fill="#972B2B" />
<rect x="13" y="21" width="1" height="3" fill="#9C2D2D" />
<rect x="15" y="21" width="1" height="3" fill="#A42F2F" />
<rect x="23" y="21" width="1" height="1" fill="#AC3232" />
<rect x="24" y="21" width="14" height="6" fill="#000000" />
<rect x="38" y="21" width="1" height="1" fill="#AC3232" />
<rect x="39" y="21" width="1" height="1" fill="#A42F2F" />
<rect x="41" y="21" width="1" height="1" fill="#FFFFFF" />
<rect x="44" y="21" width="1" height="2" fill="#FFFFFF" />
<rect x="45" y="21" width="1" height="1" fill="#A02F2F" />
<rect x="47" y="21" width="1" height="3" fill="#A02E2E" />
<rect x="48" y="21" width="1" height="1" fill="#9C2D2D" />
<rect x="49" y="21" width="1" height="1" fill="#972B2B" />
<rect x="50" y="21" width="1" height="1" fill="#AC3232" />
<rect x="10" y="22" width="1" height="1" fill="#AC3232" />
<rect x="11" y="22" width="1" height="2" fill="#FFFFFF" />
<rect x="14" y="22" width="1" height="2" fill="#A02F2F" />
<rect x="17" y="22" width="3" height="1" fill="#A42F2F" />
<rect x="20" y="22" width="3" height="1" fill="#AC3232" />
<rect x="23" y="22" width="1" height="4" fill="#000000" />
<rect x="38" y="22" width="1" height="4" fill="#000000" />
<rect x="39" y="22" width="3" height="1" fill="#AC3232" />
<rect x="42" y="22" width="1" height="1" fill="#A42F2F" />
<rect x="43" y="22" width="1" height="1" fill="#FFFFFF" />
<rect x="45" y="22" width="1" height="1" fill="#FFFFFF" />
<rect x="46" y="22" width="1" height="3" fill="#A02F2F" />
<rect x="48" y="22" width="1" height="2" fill="#A02E2E" />
<rect x="49" y="22" width="1" height="2" fill="#9C2D2D" />
<rect x="50" y="22" width="1" height="2" fill="#972B2B" />
<rect x="51" y="22" width="1" height="1" fill="#AC3232" />
<rect x="9" y="23" width="1" height="3" fill="#AC3232" />
<rect x="10" y="23" width="1" height="1" fill="#FFFFFF" />
<rect x="16" y="23" width="4" height="1" fill="#AC3232" />
<rect x="20" y="23" width="3" height="1" fill="#862727" />
<rect x="39" y="23" width="3" height="1" fill="#862727" />
<rect x="42" y="23" width="4" height="1" fill="#AC3232" />
<rect x="51" y="23" width="1" height="1" fill="#972B2B" />
<rect x="52" y="23" width="1" height="3" fill="#AC3232" />
<rect x="10" y="24" width="6" height="1" fill="#AC3232" />
<rect x="16" y="24" width="5" height="1" fill="#862727" />
<rect x="21" y="24" width="2" height="1" fill="#8A2828" />
<rect x="39" y="24" width="2" height="1" fill="#8A2828" />
<rect x="41" y="24" width="5" height="1" fill="#862727" />
<rect x="47" y="24" width="3" height="1" fill="#A02F2F" />
<rect x="50" y="24" width="2" height="1" fill="#AC3232" />
<rect x="10" y="25" width="1" height="1" fill="#AC3232" />
<rect x="11" y="25" width="5" height="1" fill="#862727" />
<rect x="16" y="25" width="5" height="1" fill="#8A2828" />
<rect x="21" y="25" width="2" height="2" fill="#8F2929" />
<rect x="39" y="25" width="2" height="2" fill="#8F2929" />
<rect x="41" y="25" width="5" height="1" fill="#8A2828" />
<rect x="46" y="25" width="5" height="1" fill="#862727" />
<rect x="51" y="25" width="1" height="1" fill="#AC3232" />
<rect x="11" y="26" width="1" height="1" fill="#AC3232" />
<rect x="12" y="26" width="4" height="1" fill="#8A2828" />
<rect x="16" y="26" width="5" height="1" fill="#8F2929" />
<rect x="23" y="26" width="1" height="1" fill="#8F2929" />
<rect x="38" y="26" width="1" height="1" fill="#8F2929" />
<rect x="41" y="26" width="5" height="1" fill="#8F2929" />
<rect x="46" y="26" width="4" height="1" fill="#8A2828" />
<rect x="50" y="26" width="1" height="1" fill="#AC3232" />
<rect x="12" y="27" width="12" height="1" fill="#AC3232" />
<rect x="24" y="27" width="11" height="1" fill="#000000" />
<rect x="35" y="27" width="3" height="1" fill="#090909" />
<rect x="38" y="27" width="12" height="1" fill="#AC3232" />
<rect x="25" y="28" width="1" height="1" fill="#090909" />
<rect x="26" y="28" width="5" height="1" fill="#000000" />
<rect x="31" y="28" width="1" height="2" fill="#090909" />
<rect x="32" y="28" width="1" height="1" fill="#000000" />
<rect x="33" y="28" width="4" height="1" fill="#090909" />
<rect x="21" y="29" width="7" height="1" fill="#4E2D27" />
<rect x="28" y="29" width="3" height="1" fill="#090909" />
<rect x="32" y="29" width="1" height="1" fill="#090909" />
<rect x="33" y="29" width="7" height="1" fill="#4E2D27" />
<rect x="20" y="30" width="2" height="1" fill="#4E2D27" />
<rect x="22" y="30" width="3" height="5" fill="#5B342D" />
<rect x="25" y="30" width="10" height="1" fill="#4E2D27" />
<rect x="35" y="30" width="4" height="1" fill="#5B342D" />
<rect x="39" y="30" width="3" height="1" fill="#4E2D27" />
<rect x="20" y="31" width="1" height="3" fill="#4E2D27" />
<rect x="21" y="31" width="1" height="3" fill="#5B342D" />
<rect x="25" y="31" width="2" height="2" fill="#5B342D" />
<rect x="27" y="31" width="6" height="1" fill="#4E2D27" />
<rect x="33" y="31" width="5" height="1" fill="#5B342D" />
<rect x="38" y="31" width="3" height="1" fill="#56322B" />
<rect x="41" y="31" width="1" height="3" fill="#4E2D27" />
<rect x="27" y="32" width="1" height="2" fill="#56322B" />
<rect x="28" y="32" width="2" height="1" fill="#522F29" />
<rect x="30" y="32" width="2" height="1" fill="#4E2D27" />
<rect x="32" y="32" width="4" height="1" fill="#5B342D" />
<rect x="36" y="32" width="2" height="1" fill="#56322B" />
<rect x="38" y="32" width="3" height="1" fill="#522F29" />
<rect x="25" y="33" width="1" height="2" fill="#5B342D" />
<rect x="26" y="33" width="1" height="2" fill="#56322B" />
<rect x="28" y="33" width="1" height="1" fill="#522F29" />
<rect x="29" y="33" width="2" height="1" fill="#4E2D27" />
<rect x="31" y="33" width="2" height="1" fill="#5B342D" />
<rect x="33" y="33" width="3" height="1" fill="#56322B" />
<rect x="36" y="33" width="2" height="1" fill="#522F29" />
<rect x="38" y="33" width="3" height="1" fill="#4E2D27" />
<rect x="19" y="34" width="2" height="1" fill="#445F2B" />
<rect x="21" y="34" width="1" height="1" fill="#4E2D27" />
<rect x="27" y="34" width="1" height="2" fill="#522F29" />
<rect x="28" y="34" width="2" height="1" fill="#4E2D27" />
<rect x="30" y="34" width="2" height="1" fill="#5B342D" />
<rect x="32" y="34" width="1" height="1" fill="#56322B" />
<rect x="33" y="34" width="3" height="1" fill="#522F29" />
<rect x="36" y="34" width="3" height="2" fill="#4E2D27" />
<rect x="39" y="34" width="1" height="2" fill="#4B692F" />
<rect x="40" y="34" width="1" height="1" fill="#47632D" />
<rect x="41" y="34" width="1" height="1" fill="#445F2B" />
<rect x="18" y="35" width="1" height="1" fill="#445F2B" />
<rect x="19" y="35" width="1" height="1" fill="#47632D" />
<rect x="20" y="35" width="2" height="7" fill="#4B692F" />
<rect x="22" y="35" width="5" height="1" fill="#4E2D27" />
<rect x="28" y="35" width="1" height="2" fill="#4E2D27" />
<rect x="29" y="35" width="2" height="1" fill="#5B342D" />
<rect x="31" y="35" width="1" height="1" fill="#56322B" />
<rect x="32" y="35" width="1" height="1" fill="#522F29" />
<rect x="33" y="35" width="3" height="1" fill="#4E2D27" />
<rect x="40" y="35" width="1" height="1" fill="#4B692F" />
<rect x="41" y="35" width="1" height="1" fill="#47632D" />
<rect x="42" y="35" width="1" height="1" fill="#445F2B" />
<rect x="17" y="36" width="1" height="1" fill="#445F2B" />
<rect x="18" y="36" width="1" height="1" fill="#47632D" />
<rect x="19" y="36" width="1" height="10" fill="#4B692F" />
<rect x="22" y="36" width="4" height="3" fill="#4B692F" />
<rect x="26" y="36" width="2" height="1" fill="#4E2D27" />
<rect x="29" y="36" width="5" height="1" fill="#4E2D27" />
<rect x="34" y="36" width="5" height="1" fill="#522F29" />
<rect x="39" y="36" width="2" height="1" fill="#4E2D27" />
<rect x="41" y="36" width="1" height="1" fill="#4B692F" />
<rect x="42" y="36" width="1" height="1" fill="#47632D" />
<rect x="43" y="36" width="1" height="1" fill="#445F2B" />
<rect x="16" y="37" width="1" height="1" fill="#445F2B" />
<rect x="17" y="37" width="1" height="1" fill="#47632D" />
<rect x="18" y="37" width="1" height="8" fill="#4B692F" />
<rect x="26" y="37" width="1" height="1" fill="#4D6C31" />
<rect x="27" y="37" width="1" height="7" fill="#445F2B" />
<rect x="28" y="37" width="2" height="1" fill="#4B692F" />
<rect x="30" y="37" width="1" height="1" fill="#47632D" />
<rect x="31" y="37" width="2" height="1" fill="#4E2D27" />
<rect x="33" y="37" width="1" height="1" fill="#522F29" />
<rect x="34" y="37" width="7" height="1" fill="#56322B" />
<rect x="41" y="37" width="4" height="1" fill="#4E2D27" />
<rect x="15" y="38" width="1" height="1" fill="#445F2B" />
<rect x="16" y="38" width="1" height="1" fill="#47632D" />
<rect x="17" y="38" width="1" height="3" fill="#4B692F" />
<rect x="26" y="38" width="1" height="7" fill="#445F2B" />
<rect x="28" y="38" width="1" height="2" fill="#4D6C31" />
<rect x="29" y="38" width="2" height="2" fill="#4B692F" />
<rect x="31" y="38" width="2" height="1" fill="#47632D" />
<rect x="33" y="38" width="1" height="1" fill="#4E2D27" />
<rect x="34" y="38" width="1" height="1" fill="#522F29" />
<rect x="35" y="38" width="10" height="1" fill="#5B342D" />
<rect x="14" y="39" width="1" height="1" fill="#445F2B" />
<rect x="15" y="39" width="1" height="1" fill="#47632D" />
<rect x="16" y="39" width="1" height="2" fill="#4B692F" />
<rect x="22" y="39" width="3" height="3" fill="#4B692F" />
<rect x="25" y="39" width="1" height="2" fill="#4D6C31" />
<rect x="31" y="39" width="1" height="1" fill="#4B692F" />
<rect x="32" y="39" width="1" height="1" fill="#445F2B" />
<rect x="33" y="39" width="1" height="1" fill="#47632D" />
<rect x="34" y="39" width="3" height="1" fill="#4E2D27" />
<rect x="37" y="39" width="8" height="1" fill="#5B342D" />
<rect x="13" y="40" width="1" height="1" fill="#445F2B" />
<rect x="14" y="40" width="1" height="1" fill="#47632D" />
<rect x="15" y="40" width="1" height="1" fill="#4B692F" />
<rect x="28" y="40" width="2" height="1" fill="#445F2B" />
<rect x="30" y="40" width="1" height="1" fill="#4B692F" />
<rect x="31" y="40" width="1" height="2" fill="#445F2B" />
<rect x="32" y="40" width="1" height="2" fill="#47632D" />
<rect x="33" y="40" width="1" height="6" fill="#4B692F" />
<rect x="34" y="40" width="3" height="1" fill="#47632D" />
<rect x="37" y="40" width="6" height="1" fill="#4E2D27" />
<rect x="43" y="40" width="2" height="1" fill="#5B342D" />
<rect x="12" y="41" width="1" height="1" fill="#445F2B" />
<rect x="13" y="41" width="1" height="1" fill="#47632D" />
<rect x="14" y="41" width="1" height="1" fill="#4B692F" />
<rect x="15" y="41" width="3" height="1" fill="#445F2B" />
<rect x="25" y="41" width="1" height="2" fill="#445F2B" />
<rect x="28" y="41" width="1" height="4" fill="#445F2B" />
<rect x="29" y="41" width="1" height="1" fill="#4D6C31" />
<rect x="30" y="41" width="1" height="1" fill="#445F2B" />
<rect x="34" y="41" width="3" height="4" fill="#4B692F" />
<rect x="37" y="41" width="6" height="1" fill="#47632D" />
<rect x="43" y="41" width="3" height="1" fill="#4E2D27" />
<rect x="11" y="42" width="1" height="2" fill="#445F2B" />
<rect x="12" y="42" width="1" height="1" fill="#47632D" />
<rect x="13" y="42" width="2" height="1" fill="#445F2B" />
<rect x="15" y="42" width="1" height="2" fill="#4B692F" />
<rect x="16" y="42" width="2" height="1" fill="#47632D" />
<rect x="20" y="42" width="1" height="2" fill="#4B692F" />
<rect x="21" y="42" width="1" height="1" fill="#47632D" />
<rect x="22" y="42" width="1" height="1" fill="#445F2B" />
<rect x="23" y="42" width="1" height="2" fill="#4B692F" />
<rect x="24" y="42" width="1" height="1" fill="#4D6C31" />
<rect x="29" y="42" width="1" height="4" fill="#445F2B" />
<rect x="30" y="42" width="1" height="2" fill="#4B692F" />
<rect x="31" y="42" width="1" height="1" fill="#47632D" />
<rect x="32" y="42" width="1" height="1" fill="#445F2B" />
<rect x="37" y="42" width="6" height="2" fill="#4B692F" />
<rect x="43" y="42" width="2" height="1" fill="#47632D" />
<rect x="45" y="42" width="1" height="1" fill="#445F2B" />
<rect x="12" y="43" width="1" height="2" fill="#445F2B" />
<rect x="13" y="43" width="2" height="1" fill="#4B692F" />
<rect x="16" y="43" width="2" height="1" fill="#4B692F" />
<rect x="21" y="43" width="1" height="5" fill="#445F2B" />
<rect x="22" y="43" width="1" height="1" fill="#47632D" />
<rect x="24" y="43" width="1" height="2" fill="#445F2B" />
<rect x="25" y="43" width="1" height="2" fill="#4B692F" />
<rect x="31" y="43" width="2" height="1" fill="#4B692F" />
<rect x="43" y="43" width="1" height="9" fill="#4B692F" />
<rect x="44" y="43" width="2" height="1" fill="#47632D" />
<rect x="46" y="43" width="1" height="5" fill="#445F2B" />
<rect x="13" y="44" width="4" height="1" fill="#445F2B" />
<rect x="17" y="44" width="1" height="1" fill="#4B692F" />
<rect x="20" y="44" width="1" height="1" fill="#445F2B" />
<rect x="22" y="44" width="1" height="1" fill="#445F2B" />
<rect x="23" y="44" width="1" height="1" fill="#4D6C31" />
<rect x="27" y="44" width="1" height="9" fill="#5F863C" />
<rect x="30" y="44" width="1" height="1" fill="#445F2B" />
<rect x="31" y="44" width="1" height="6" fill="#567936" />
<rect x="32" y="44" width="1" height="2" fill="#445F2B" />
<rect x="37" y="44" width="1" height="1" fill="#445F2B" />
<rect x="38" y="44" width="5" height="3" fill="#4B692F" />
<rect x="44" y="44" width="1" height="9" fill="#4B692F" />
<rect x="45" y="44" width="1" height="5" fill="#47632D" />
<rect x="17" y="45" width="2" height="1" fill="#445F2B" />
<rect x="20" y="45" width="1" height="2" fill="#4B692F" />
<rect x="22" y="45" width="1" height="1" fill="#47632D" />
<rect x="23" y="45" width="1" height="2" fill="#445F2B" />
<rect x="24" y="45" width="1" height="1" fill="#4B692F" />
<rect x="25" y="45" width="1" height="1" fill="#567936" />
<rect x="26" y="45" width="1" height="8" fill="#5F863C" />
<rect x="28" y="45" width="1" height="7" fill="#5F863C" />
<rect x="30" y="45" width="1" height="5" fill="#5F863C" />
<rect x="34" y="45" width="2" height="1" fill="#4B692F" />
<rect x="36" y="45" width="1" height="1" fill="#445F2B" />
<rect x="37" y="45" width="1" height="1" fill="#47632D" />
<rect x="19" y="46" width="1" height="1" fill="#445F2B" />
<rect x="22" y="46" width="1" height="2" fill="#445F2B" />
<rect x="24" y="46" width="1" height="1" fill="#567936" />
<rect x="25" y="46" width="1" height="6" fill="#5F863C" />
<rect x="29" y="46" width="1" height="5" fill="#5F863C" />
<rect x="32" y="46" width="1" height="3" fill="#5F863C" />
<rect x="33" y="46" width="1" height="1" fill="#445F2B" />
<rect x="34" y="46" width="1" height="1" fill="#4B692F" />
<rect x="35" y="46" width="1" height="3" fill="#445F2B" />
<rect x="36" y="46" width="1" height="1" fill="#47632D" />
<rect x="37" y="46" width="1" height="1" fill="#4B692F" />
<rect x="20" y="47" width="1" height="1" fill="#445F2B" />
<rect x="23" y="47" width="1" height="5" fill="#567936" />
<rect x="24" y="47" width="1" height="4" fill="#5F863C" />
<rect x="33" y="47" width="1" height="3" fill="#5F863C" />
<rect x="34" y="47" width="1" height="1" fill="#445F2B" />
<rect x="36" y="47" width="2" height="1" fill="#445F2B" />
<rect x="38" y="47" width="1" height="1" fill="#4D6C31" />
<rect x="39" y="47" width="2" height="1" fill="#4B692F" />
<rect x="41" y="47" width="2" height="1" fill="#445F2B" />
<rect x="34" y="48" width="1" height="3" fill="#5F863C" />
<rect x="36" y="48" width="2" height="5" fill="#5F863C" />
<rect x="38" y="48" width="1" height="2" fill="#445F2B" />
<rect x="39" y="48" width="1" height="2" fill="#4D6C31" />
<rect x="40" y="48" width="1" height="3" fill="#445F2B" />
<rect x="41" y="48" width="2" height="1" fill="#47632D" />
<rect x="46" y="48" width="1" height="7" fill="#47632D" />
<rect x="47" y="48" width="1" height="8" fill="#445F2B" />
<rect x="32" y="49" width="1" height="1" fill="#567936" />
<rect x="35" y="49" width="1" height="3" fill="#5F863C" />
<rect x="41" y="49" width="1" height="1" fill="#47632D" />
<rect x="42" y="49" width="1" height="2" fill="#4B692F" />
<rect x="45" y="49" width="1" height="5" fill="#4B692F" />
<rect x="30" y="50" width="1" height="2" fill="#567936" />
<rect x="33" y="50" width="1" height="2" fill="#567936" />
<rect x="38" y="50" width="1" height="2" fill="#5F863C" />
<rect x="39" y="50" width="1" height="1" fill="#445F2B" />
<rect x="41" y="50" width="1" height="1" fill="#445F2B" />
<rect x="24" y="51" width="1" height="1" fill="#597D39" />
<rect x="29" y="51" width="1" height="1" fill="#597D39" />
<rect x="34" y="51" width="1" height="1" fill="#597D39" />
<rect x="39" y="51" width="1" height="1" fill="#597D39" />
<rect x="40" y="51" width="1" height="1" fill="#567936" />
<rect x="42" y="51" width="1" height="1" fill="#445F2B" />
<rect x="22" y="52" width="3" height="1" fill="#4E2D27" />
<rect x="25" y="52" width="1" height="1" fill="#597D39" />
<rect x="28" y="52" width="1" height="1" fill="#597D39" />
<rect x="29" y="52" width="6" height="1" fill="#4E2D27" />
<rect x="35" y="52" width="1" height="1" fill="#597D39" />
<rect x="38" y="52" width="1" height="1" fill="#597D39" />
<rect x="39" y="52" width="3" height="1" fill="#4E2D27" />
<rect x="43" y="52" width="1" height="1" fill="#445F2B" />
<rect x="22" y="53" width="1" height="4" fill="#4E2D27" />
<rect x="23" y="53" width="2" height="4" fill="#5B342D" />
<rect x="25" y="53" width="1" height="1" fill="#4E2D27" />
<rect x="26" y="53" width="2" height="1" fill="#597D39" />
<rect x="28" y="53" width="1" height="1" fill="#4E2D27" />
<rect x="29" y="53" width="2" height="7" fill="#5B342D" />
<rect x="31" y="53" width="2" height="8" fill="#4E2D27" />
<rect x="33" y="53" width="2" height="7" fill="#5B342D" />
<rect x="35" y="53" width="1" height="1" fill="#4E2D27" />
<rect x="36" y="53" width="2" height="1" fill="#597D39" />
<rect x="38" y="53" width="1" height="1" fill="#4E2D27" />
<rect x="39" y="53" width="2" height="4" fill="#5B342D" />
<rect x="41" y="53" width="1" height="4" fill="#4E2D27" />
<rect x="44" y="53" width="1" height="1" fill="#445F2B" />
<rect x="25" y="54" width="1" height="5" fill="#5B342D" />
<rect x="26" y="54" width="2" height="1" fill="#4E2D27" />
<rect x="28" y="54" width="1" height="8" fill="#5B342D" />
<rect x="35" y="54" width="1" height="8" fill="#5B342D" />
<rect x="36" y="54" width="2" height="1" fill="#4E2D27" />
<rect x="38" y="54" width="1" height="5" fill="#5B342D" />
<rect x="45" y="54" width="1" height="1" fill="#445F2B" />
<rect x="26" y="55" width="2" height="7" fill="#5B342D" />
<rect x="36" y="55" width="2" height="7" fill="#5B342D" />
<rect x="46" y="55" width="1" height="1" fill="#445F2B" />
<rect x="23" y="57" width="1" height="4" fill="#4E2D27" />
<rect x="24" y="57" width="1" height="2" fill="#5B342D" />
<rect x="39" y="57" width="1" height="2" fill="#5B342D" />
<rect x="40" y="57" width="1" height="4" fill="#4E2D27" />
<rect x="24" y="59" width="2" height="1" fill="#4E2D27" />
<rect x="38" y="59" width="2" height="1" fill="#4E2D27" />
<rect x="22" y="60" width="1" height="1" fill="#4E2D27" />
<rect x="24" y="60" width="2" height="2" fill="#5B342D" />
<rect x="29" y="60" width="1" height="1" fill="#5B342D" />
<rect x="30" y="60" width="1" height="3" fill="#4E2D27" />
<rect x="33" y="60" width="1" height="3" fill="#4E2D27" />
<rect x="34" y="60" width="1" height="1" fill="#5B342D" />
<rect x="38" y="60" width="2" height="2" fill="#5B342D" />
<rect x="41" y="60" width="1" height="1" fill="#4E2D27" />
<rect x="21" y="61" width="1" height="2" fill="#4E2D27" />
<rect x="22" y="61" width="2" height="1" fill="#5B342D" />
<rect x="29" y="61" width="1" height="2" fill="#4E2D27" />
<rect x="34" y="61" width="1" height="2" fill="#4E2D27" />
<rect x="40" y="61" width="2" height="1" fill="#5B342D" />
<rect x="42" y="61" width="1" height="2" fill="#4E2D27" />
<rect x="22" y="62" width="7" height="1" fill="#4E2D27" />
<rect x="35" y="62" width="7" height="1" fill="#4E2D27" />
</svg>